<svg xmlns="http://www.w3.org/2000/svg" width="2054" height="742" fill="none" xmlns:v="https://vecta.io/nano"><path fill-rule="evenodd" d="M1307.15 1.876c-5.05 7.72-7.23 27.835-2.51 23.11.6-.601 1.21-4.396 1.34-8.433.14-4.178 1.01-9.189 2.02-11.631 1.98-4.817 1.48-6.612-.85-3.046zm96.22 20.087c-6.57 6.211-9.86 10.768-9.86 13.654 0 3.358 1.69 2.434 4-2.184 1.18-2.354 4.58-6.845 7.57-9.979s5.43-5.933 5.43-6.22c0-1.429-2.09-.042-7.14 4.729zm-157.23 24.289c-1.4 3.652.13 17.907 2.53 23.461 2.17 5.026 2.59 5.506 5.19 5.816 3.23.386 3.55-1.699.65-4.321-2.31-2.093-5.63-12.495-6.52-20.483-.69-6.164-.96-6.803-1.85-4.473zm63.37 16.504c-5.64.968-9.68 3.638-13.16 8.708-1.79 2.612-4.73 6.696-6.54 9.076-1.82 2.38-3.58 5.53-3.93 7s-1.2 3.798-1.89 5.173c-5.58 11.119-6.24 22.546-2.14 37 1.91 6.711 1.42 22.786-.83 27.287-.81 1.626-1.27 3.279-1.03 3.674s-.65 3.827-2 7.628c-2.52 7.164-3.21 13.411-1.48 13.411.55 0 1-1.048 1-2.328s1.54-6.24 3.42-11.023c5.95-15.155 7.78-36.574 3.6-42.149-.81-1.091-2.26-11.436-2.17-15.593.14-6.907 8.05-26.17 13.87-33.779 9.42-12.301 12.41-13.602 23.28-10.128 3.45 1.1 7.29 2 8.55 2s4.46.94 7.12 2.088l4.83 2.088-4.5 2.327c-7.28 3.768-16.77 15.752-19.38 24.497-3.06 10.219-3.29 11.478-4.07 22.5-.62 8.747-2.75 19.211-4.62 22.736-.51.955-.93 2.755-.93 4s-1.8 4.912-4 8.149-4 6.432-4 7.1-1.45 3.195-3.24 5.615c-1.78 2.42-3.69 5.118-4.25 5.997-6.63 10.489-6.93 10.798-8.95 9.323-2.95-2.161-6.3-1.732-8.12 1.038-2.02 3.083.74 8.84 5.79 12.052 20.15 12.838 20.57 13.004 29.84 11.779 10.11-1.335 16.06-4.873 21.21-12.608 2.6-3.901 4.94-6.166 7.5-7.244 3.74-1.575 5.21-1.941 19.41-4.82 29.5-5.984 42.14-15.655 49.81-38.117 7.15-20.942 3.96-29.804-16.9-47-4-3.3-8.02-6.402-8.94-6.892-.91-.491-4.93-4.172-8.94-8.179-4.83-4.825-8.38-7.521-10.5-7.98-1.77-.381-4.79-1.484-6.72-2.451-1.92-.967-5.52-2.087-8-2.489-2.47-.402-6.39-1.583-8.7-2.624s-7.26-2.6-10.99-3.466-7.24-1.933-7.8-2.371c-1.51-1.197-6.56-1.681-10.51-1.005zm42.13 14.318c2.96 1.299 7.62 3.167 10.37 4.151 3.11 1.112 6.52 3.399 9 6.038 2.2 2.336 5.8 5.446 8 6.911 26.39 17.573 33.81 32.343 25.6 50.948-.99 2.25-2.39 6.341-3.12 9.091-3.64 13.794-19.02 22.944-50.34 29.955-16.47 3.686-19.04 4.857-22.1 10.075-3.85 6.576-15.54 15.529-15.54 11.906 0-2.468-5.61-7.203-11.89-10.041-3.08-1.391-7.92-3.916-10.75-5.61l-5.15-3.08 6-7.545c3.3-4.15 7.24-10.102 8.75-13.227s3.88-7.201 5.26-9.057c4.38-5.905 8.26-20.444 9.77-36.584 2.12-22.796 11.58-40.376 24.01-44.65 5.9-2.026 5.89-2.026 12.13.719zm101.87 2.032c-16.85 6.286-20.03 7.969-18.32 9.685.77.772 2.47.387 5.95-1.351 2.68-1.337 8.14-3.663 12.13-5.168s7-3.147 6.69-3.648c-.75-1.204-2.22-1.093-6.45.482zm-274 62.57c0 5.568 23.89 7.621 29.77 2.558 3.63-3.121 2.3-4.163-2.74-2.146-4.54 1.813-9.77 2.063-15.03.716-6.32-1.622-12-2.156-12-1.128zm268.67 34.704c-1.99 1.993 2.32 4.429 14.63 8.27 12.96 4.042 9.53.024-5.3-6.21-6.78-2.851-8.22-3.17-9.33-2.06zm-164.56 12.783c3.41 1.938 3.96 2.588 2.61 3.106-1.13.433-2.91-.398-5.25-2.45-4.25-3.734-3.22-3.989 2.64-.656zm-.11 6.266c0 1.843-1.04 1.591-3.68-.89-3.26-3.063-2.88-4.271.68-2.167 1.65.975 3 2.35 3 3.057zm10.97-.616c2.22 1.154 3.76 2.534 3.43 3.065-.34.552-1.45.194-2.59-.837-1.09-.991-3.18-2.334-4.65-2.984-1.46-.65-2.11-1.218-1.44-1.263s3.04.864 5.25 2.019zm-202.49.209c8.16 4.928 16.63 16.577 18.66 25.653 4.39 19.662 4.49 24.538.58 28.788-2.11 2.305-1.1 3.238 1.11 1.023 1.44-1.441-.46 5.023-1.96 6.677-.48.522-.87 1.487-.87 2.144 0 4.246-10.06 10.406-17 10.406-10.79 0-25.39-14.262-23.63-23.083.37-1.868.23-2.785-.38-2.408-1.33.821-1.26-6.218.13-14.427 3.13-18.348 13.08-26.2 28.63-22.587 4.67 1.083 4.13-.928-.77-2.886-16.05-6.424-27.25 3.966-31.98 29.665-5.29 28.712 27.56 51.618 45 31.388 1.93-2.232 3.55-4.763 3.61-5.624.05-.861.86-3.034 1.79-4.83 8.07-15.609-2.64-52.408-17.3-59.432-4.36-2.089-8.94-2.47-5.62-.467zm198.52 2.191c.69.825 1.87 1.5 2.63 1.5.75 0 1.37.45 1.37 1s-.26 1-.59 1c-1.17 0-6.41-3.446-6.41-4.216 0-1.288 1.67-.89 3 .716zm15.1 3.481l3.65 3.04c1.73 1.461 1.57 3.979-.24 3.979-2.51 0-9.83-7.18-8.3-8.145 1.84-1.172 2.21-1.088 4.89 1.126zm-4.67 4.519c4.59 4.198 3.17 4.494-3.67.768-4.65-2.529-4.85-2.782-2.64-3.4 1.31-.368 2.41-.713 2.44-.768s1.77 1.475 3.87 3.4zm83.07 30.504c-2.46 3.989 10.5 20.401 13.64 17.263.56-.558-.15-2.066-1.8-3.843-1.5-1.608-4.1-5.362-5.78-8.342-3.14-5.575-4.86-7.014-6.06-5.078zm-178.98 6.967c-4.66 6.735-.87 12.275 6.07 8.869 4.96-2.436 6.1-9.84 1.5-9.84-1.03 0-2.13-.675-2.45-1.5-.91-2.387-2.17-1.782-5.12 2.471zm7.45 5.279c.05 1.151-4.76.89-5.5-.298-.35-.576-.38-1.726-.06-2.554.59-1.545 5.48.963 5.56 2.852zm-29.53 6.673c-17.67 9.115-29.85 17.381-49.44 33.56-20.83 17.203-40.1 31.767-40.89 30.905-.33-.364-.07-.854.59-1.09.65-.235.97-1.008.7-1.717-.28-.71 4.53-6.868 10.67-13.686s13.7-15.607 16.8-19.533c16.44-20.827 16.14-20.387 13.88-20.331-.68.017-2.68 1.929-4.44 4.25l-12.52 16.219c-3.46 4.4-9.69 11.6-13.84 16-4.16 4.4-8.55 9.298-9.75 10.885l-2.2 2.885-.05-3.885c-.27-19.353-1.46-32.385-2.95-32.385-.54 0-.75 12.189-.51 29.75.37 27.807-.24 41.18-3.1 68-1.04 9.753 1.13 7.572 2.48-2.5 2.35-17.407 3.06-24.959 3.44-36.652.34-10.318.64-12.075 2.29-13.196 1.05-.712 3.7-2.646 5.9-4.297l12-8.982c4.4-3.288 14.53-11.442 22.5-18.12 18.11-15.163 34.92-26.467 50.75-34.14 7.39-3.579 12.25-6.515 12.25-7.399 0-2.052-.02-2.043-14.56 5.459zm-42.78-2.094c-4.46 4.926.2 11.409 4.85 6.755 2.97-2.966 3.13-4.696.67-6.929-2.35-2.121-3.48-2.085-5.52.174zm3.56 4.354c-1.53 1.528-2.65.401-1.81-1.807.5-1.304.94-1.433 1.83-.543s.88 1.448-.02 2.35zm-994.216 8.892c0 5.309 1.967 11.975 3.733 12.653 2.169.832 2.546-.371.907-2.891-.836-1.285-1.832-4.71-2.212-7.609-.849-6.475-2.428-7.875-2.428-2.153zm-13.595 3.82c.798 8.048 9.786 23.248 12.275 20.758.327-.326-1.304-3.507-3.624-7.067s-4.836-8.528-5.591-11.037c-2.323-7.717-3.678-8.893-3.06-2.654zm1208.791 2.305c-2.75 2.754.3 18.464 3.81 19.636 1.22.407 1.06-3.721-.46-11.336-.21-1.1-.43-3.687-.47-5.75-.08-3.905-.84-4.583-2.88-2.55zM165.12 289.542c-.293.474-.823 2.675-1.177 4.891-.721 4.506 1.152 7.093 2.042 2.821l1.033-4.98c.499-2.416-.873-4.391-1.898-2.732zm-8.606 9.062c0 10.32 15.549 52.713 21.25 57.934 3.774 3.456 4.523.819.93-3.273-3.739-4.258-12.147-25.646-17.019-43.292-3.365-12.188-5.161-16.144-5.161-11.369zm-29 .893c0 3.489 18.126 17.216 22.733 17.216 4.316 0 3.941-2.178-.533-3.093-3.959-.81-6.142-2.258-13.988-9.28-5.928-5.305-8.212-6.652-8.212-4.843zm48.918.966c-.177 3.757-1.048 8.021-2.943 14.405-2.362 7.961-2.414 8.845-.514 8.845.88 0 1.901-1.692 2.564-4.25l2.033-7.75c1.237-4.651 1.199-13-.058-13-.55 0-1.037.788-1.082 1.75zm1021.078 11.881c-40.29 2.345-83.83 13.357-79.64 20.142.45.715 1.48.299 2.98-1.196 12.96-12.966 87.53-20.128 137.66-13.222l29 3.643c6.33.678 19.11 2.288 28.41 3.578 11.01 1.525 17.47 2.02 18.5 1.415.88-.512 1.37-1.001 1.09-1.088-3.24-1.025-36.95-5.744-52.54-7.355-8.78-.907-22.03-2.559-29.46-3.672-13.18-1.978-41.26-3.103-56-2.245zM159.514 335.753c0 2.26 4.128 8.96 5.52 8.96 2.035 0 1.89-.641-1.27-5.643-2.666-4.22-4.25-5.456-4.25-3.317zm910.086 24.492c-5.53 3.809-8.24 5.989-13.99 11.281-1.98 1.822-5.49 4.645-7.81 6.272s-5.69 4.341-7.5 6.028-4.41 3.798-5.79 4.691c-1.37.894-4.75 3.491-7.5 5.772s-9.91 7.867-15.93 12.413c-6.01 4.546-12.079 9.333-13.487 10.638s-2.843 2.373-3.191 2.373-3.337 2.138-6.643 4.75-7.025 5.425-8.266 6.25c-4.572 3.038-7.971 6.204-7.493 6.977.27.438-.409 1.031-1.51 1.319-1.319.345-2.351-.128-3.024-1.386-3.421-6.391-23.997 5.699-22.549 13.249.607 3.159-3.042 5.575-23.403 15.498-24.655 12.015-45.957 20.853-59 24.477-1.925.535-5.75 1.814-8.5 2.843s-7.475 2.39-10.5 3.026-7.192 1.794-9.261 2.573-4.094 1.324-4.5 1.211-5.239.806-10.739 2.044l-20.5 4.607c-45.898 10.303-116.129 9.519-176.816-1.973-15.326-2.902-15.913-3.386-9.874-8.137 8.39-6.602 24.383-39.269 25.863-52.828.55-5.047-1.447-4.312-2.717 1-5.583 23.353-25.538 56.649-31.067 51.837-2.597-2.259-7.522-11.951-9.827-19.337l-2.193-6.972c-.377-1.166-.643-1.203-1.275-.18-.735 1.189.715 9.266 2.405 13.402 1.123 2.75-1.717 2.153-6.015-1.263-4.287-3.407-5.47-3.198-3.435.605 1.538 2.874 8.402 6.832 10.471 6.039.824-.317 1.745.692 2.432 2.662.608 1.744 2.555 4.694 4.327 6.554 3.099 3.255 3.126 3.354.721 2.619-1.375-.42-9.925-2.211-19-3.979-15.463-3.013-42.022-9.516-46.5-11.385l-4.5-1.881c-1.375-.575-4.975-1.951-8-3.058-22.742-8.319-50.186-19.774-58.5-24.417l-10-5.599-11-5.972a57.07 57.07 0 0 1-5.996-3.583 76.27 76.27 0 0 0-6.25-3.842c-9.069-4.877-10.717-5.948-8.306-5.395 9.122 2.091 5.555-10.032-5.103-17.345-6.071-4.165-7.957-3.737-9.845 2.235-1.976 6.251-1.734 6.282-15.48-1.956-1.111-.666-2.695-1.533-3.52-1.926s-5.023-2.886-9.329-5.539-8.183-4.824-8.615-4.824-1.859-.824-3.171-1.831c-2.764-2.122-11.891-6.979-20.078-10.684-9.465-4.284-34.622-12.116-70.307-21.89-26.37-7.223-77.857-9.053-113-4.017-9.145 1.31-20.348 3.71-25.5 5.462-3.025 1.028-6.695 2.077-8.155 2.331-3.002.522-19.935 7.023-24.044 9.231-1.484.798-4.634 2.131-7 2.962-20.944 7.361-59.801 29.512-59.801 34.091 0 2.009 2.438 1.624 4.56-.721 2.14-2.365 13.997-10.416 19.936-13.538l10.004-5.336c3.3-1.777 8.7-4.368 12-5.757s9.15-3.975 13-5.745c16.514-7.593 34.312-13.687 53.671-18.377 33.93-8.219 98.016-5.901 133.329 4.823l11.5 3.393c28.288 8.082 53.131 16.883 59.686 21.144 1.203.782 3.903 2.381 6 3.553 33.417 18.673 39.874 22.956 40.679 26.983 1.324 6.619 12.473 12.559 15.373 8.191 1.607-2.42.358-2.877 13.762 5.036 20.3 11.983 44.612 24.696 47.227 24.696.565 0 1.588.675 2.273 1.5s1.977 1.514 2.872 1.531 3.878 1.138 6.628 2.491 5.342 2.464 5.761 2.469 2.668.876 5 1.935 8.064 3.26 12.739 4.891l19.799 7.059c6.214 2.251 15.214 5.006 20 6.123l12.701 2.965c2.2.514 8.05 1.649 13 2.521s10.8 2.03 13 2.572 6.025 1.369 8.5 1.838l17.294 3.494c7.037 1.452 14.687 2.869 17 3.148s6.681.929 9.706 1.443c41.421 7.042 114.632 5.822 151-2.517l21-4.498c7.975-1.654 15.625-3.392 17-3.862s4.975-1.392 8-2.049 6.4-1.59 7.5-2.075 6.692-2.297 12.426-4.028c9.836-2.967 22.365-8.019 33.52-13.514 2.721-1.34 5.337-2.437 5.815-2.437 1.026 0 27.392-13.178 36.739-18.362 3.575-1.983 7.625-4.097 9-4.698s4.171-1.912 6.213-2.913c3.146-1.542 3.89-1.608 4.867-.43 1.978 2.383 8.962.392 13.67-3.896 2.719-2.477 3.012-7.194.507-8.156-1.721-.66 1.667-4.456 4.036-4.523.969-.027 11.264-7.55 14.707-10.747 2.368-2.199 8.676-6.986 13.536-10.275 2-1.354 12.72-10.05 16.46-13.358.83-.728 2.97-2.168 4.75-3.199 1.79-1.031 3.25-2.191 3.25-2.578s3.27-3.067 7.25-5.955c3.99-2.888 8.15-6.215 9.25-7.393a28.11 28.11 0 0 1 4.5-3.731c3.5-2.218 23.05-18.577 23.12-19.333.14-1.682-1.26-1.197-6.03 2.079zm270.26 22.017c-.31.792-.98 1.177-1.5.855-1.31-.811-10.67 5.687-11.42 7.931-.34 1.009-1.9 2.283-3.47 2.83-1.96.683-3.21 2.072-3.99 4.424-.62 1.886-1.54 3.174-2.05 2.861-.5-.312-.92.064-.92.836s-.9 2.219-2 3.214-2 2.593-2 3.55-1.11 2.8-2.48 4.095c-1.36 1.295-2.49 3.11-2.5 4.034s-.72 2.384-1.58 3.247c-.96.953-1.32 2.353-.94 3.571.88 2.752 1.89 2.511 3.57-.848l4.39-8.75c1.63-3.245 3.66-6.447 4.5-7.117.85-.67 1.11-1.233.57-1.25-.53-.018.03-.733 1.25-1.589s2.22-2.206 2.22-3 .45-1.443 1-1.443 1-.75 1-1.667.31-1.363.68-.993 2.06-.796 3.75-2.592c5.49-5.825 13.61-10.748 17.72-10.748 5.81 0 5.85 19.464.05 28.871-4.59 7.454-6.19 9.828-8.17 12.129-4.17 4.855-11.03 14.252-11.03 15.12 0 .484-.46.88-1.03.88-1.08 0-7.97 6.501-7.97 7.522 0 1.113-12.5 12.442-13.75 12.46-.68.01-1.25.402-1.25.87s-2.73 3.002-6.07 5.628c-3.35 2.627-7.47 6.047-9.18 7.601-3.31 3.023-4.51 3.083-4.26.211.25-2.882 2.84-9.292 3.76-9.292 1.45 0 6.75-13.025 6.75-16.593 0-6.032-3.76.556-6.33 11.093-.46 1.883-2.34 4.679-3.26 4.828-1.04.17-5.47 12.271-4.75 12.992 1.08 1.08-7.33 8.45-11.66 10.213a28.36 28.36 0 0 0-3 1.501c-.82.49-3.52 1.92-6 3.178-2.47 1.259-4.65 2.625-4.83 3.038s-1.14.75-2.13.75c-.98 0-2.31.631-2.95 1.402s-2.21 1.664-3.49 1.984-5.36 2.357-9.07 4.525-7.37 3.702-8.13 3.409c-.77-.294-1.4-.071-1.4.495s-1.68 1.554-3.75 2.195c-2.06.641-5.74 2.067-8.18 3.171s-5.93 2.248-7.75 2.543-3.32.929-3.32 1.407-.87.869-1.94.869-2.22.457-2.57 1.016c-.34.559-1.05.756-1.56.437-.52-.319-1.21.121-1.54.978s-1 1.307-1.5 1.001c-1.15-.716-7.89 1.696-7.89 2.828 0 .472-.44.586-.97.253-.54-.333-2.01-.039-3.25.653-1.25.692-2.6 1.169-2.99 1.058s-1.97.313-3.5.941-3.24 1.259-3.79 1.402c-5.4 1.405-14.49 3.614-16.5 4.01-1.37.272-3.85.89-5.5 1.372s-7.5 1.644-13 2.582-10.49 2.097-11.09 2.578-1.33.634-1.62.342c-.52-.518-14.76 3.864-17.82 5.484-1.23.651-6.45 2.126-8.97 2.533-.27.044-2.75 1.131-5.5 2.415-9.3 4.344-12.98 5.888-17 7.127-4.02 1.244-10.44 3.917-16 6.665-1.65.816-3.83 1.656-4.85 1.866-1.01.211-5.29 2.172-9.5 4.358l-13.1 6.789c-3.01 1.546-6.08 3.375-6.83 4.062s-1.82 1.25-2.37 1.25c-.56 0-2.89 1.279-5.18 2.842-6.5 4.437-12.79 8.351-17.29 10.76-2.269 1.214-6.994 4.273-10.5 6.798s-7.927 5.281-9.822 6.126-4.874 2.625-6.619 3.956-6.944 4.975-11.554 8.099-9.531 6.747-10.936 8.05-2.915 2.369-3.355 2.369c-.735 0-4.932 3.097-8.59 6.34-4.59 4.069-26.508 20.01-32.5 23.638-3.85 2.331-7.9 5.026-9 5.989s-6.596 4.306-12.213 7.428-10.459 6.074-10.759 6.559c-.872 1.411-13.193 8.046-14.94 8.046-.874 0-1.588.348-1.588.774s-2.95 2.338-6.556 4.25c-14.689 7.788-22.99 11.964-23.793 11.97s-1.9.452-10.651 4.313c-4.495 1.983-25.569 8.89-34 11.144-3.575.955-7.281 2.145-8.236 2.643s-2.841.906-4.191.906-2.697.391-2.992.869-2.437 1.172-4.759 1.544-4.695 1.047-5.272 1.502-5.55 1.376-11.05 2.045-13.15 1.81-17 2.534c-37.655 7.077-112.01 5.197-139-3.515-1.65-.533-5.025-1.246-7.5-1.585s-6.3-1.2-8.5-1.914-5.462-1.599-7.25-1.968-3.25-1.014-3.25-1.433-2.242-.841-4.981-.938-6.228-.658-7.75-1.248-3.444-1.25-4.269-1.468c-4.267-1.132-21.02-7.111-21.628-7.72-.388-.388-1.504-.705-2.479-.705s-5.653-1.8-10.393-4-8.884-4-9.21-4-3.111-1.167-6.19-2.594l-9.71-4.5c-2.26-1.048-4.735-1.908-5.5-1.91s-2.751-.833-4.414-1.848c-2.467-1.504-9.334-4.285-11.476-4.647-.275-.047-1.958-.863-3.74-1.813s-3.469-1.719-3.75-1.706-2.846-1.104-5.698-2.48-5.941-2.502-6.864-2.502-2.751-.822-4.063-1.827c-2.605-1.996-9.968-5.57-13.808-6.703-2.398-.707-3.528-1.446-7.012-4.583-.985-.887-3.382-1.912-5.327-2.276s-5.177-1.777-7.182-3.137-4.187-2.507-4.85-2.547-2.556-.93-4.206-1.977-5.025-2.899-7.5-4.116-5.85-3.141-7.5-4.276c-4.24-2.916-6.251-4.112-12.5-7.436l-30-15.666c-3.575-1.749-9.324-4.207-12.775-5.461-5.64-2.05-6.13-2.444-4.832-3.888 1.88-2.093 9.725-18.888 12.498-26.754 2.844-8.07 5.106-21.18 5.108-29.603.002-9.66-1.634-8.337-2.473 2-2.007 24.73-15.433 56.965-22.026 52.884-1.1-.681-3.913-1.849-6.25-2.596s-4.25-1.736-4.25-2.198-.805-.84-1.789-.84-3.571-.931-5.75-2.068-6.211-2.973-8.961-4.078-6.35-2.629-8-3.385-5.925-2.351-9.5-3.542-7.85-2.731-9.5-3.419-9.075-3.161-16.5-5.494l-16-5.035c-1.375-.436-5.481-1.6-9.125-2.588-6.362-1.723-6.621-1.915-6.5-4.811.118-2.837-.159-3.069-4.672-3.915-5.727-1.073-14.128.786-13.3 2.944.383.997-.4 1.198-3.198.824-30.559-4.091-84.846-2.398-117.205 3.655-10.25 1.917-44.511 11.379-46.5 12.841-.55.405-2.575 1.333-4.5 2.063s-4.932 2.381-6.683 3.668-3.56 2.34-4.021 2.34c-3.688 0-16.635 16.061-14.593 18.103 1.438 1.438 3.297.305 3.297-2.01 0-7.757 21.362-20.124 48.5-28.08 31.316-9.181 54.505-11.985 99.25-12.003l26.25-.01v3.555c0 4.744 6.818 8.06 19.549 9.506 12.437 1.413 15.785-.413 11.465-6.256l-2.074-2.805h2.562c1.409 0 4.056.624 5.882 1.387s5.299 1.709 7.718 2.103c3.968.646 30.187 8.718 38.898 11.975l11 4.056c4.125 1.511 9.75 3.75 12.5 4.976l20.5 8.935 22.5 10.036 12 5.514c8.039 3.511 24.862 12.146 26.579 13.642.868.757 1.862 1.376 2.207 1.376s4.798 2.475 9.893 5.5 9.657 5.5 10.138 5.5 2.181.931 3.779 2.068 2.904 1.78 2.904 1.429.707.067 1.571.932 2.215 1.571 3 1.571 1.429.414 1.429.921 1.312 1.208 2.916 1.561 3.165 1.288 3.469 2.079 1.167 1.439 1.919 1.439 6.727 2.7 13.279 6 12.476 6 13.165 6 1.252.42 1.252.933 1.013 1.216 2.25 1.562c2.283.64 2.764.83 10.75 4.254l10 4.227c3.025 1.264 8.786 3.812 12.803 5.661s7.781 3.363 8.365 3.363 3.147 1.078 5.697 2.396 7.785 3.629 11.635 5.134l11 4.46c3.972 1.709 18.419 7.104 28 10.455 19.361 6.772 68.852 17.785 72.916 16.226.8-.307 1.596-.159 1.769.329s2.565 1.149 5.315 1.47 7.925 1.132 11.5 1.806c8.857 1.668 65.027 1.641 79-.038 23.582-2.833 53.062-8.279 66.5-12.285 3.85-1.147 7.675-2.217 8.5-2.378s2.85-.838 4.5-1.504 6.6-2.357 11-3.757 9.418-3.167 11.151-3.929 3.414-1.385 3.734-1.385 3.367-1.348 6.769-2.997 6.244-2.885 6.314-2.75.659 1.484 1.308 2.997c1.971 4.59 9.386 3.193 17.069-3.215 4.368-3.643 5.142-5.971 2.666-8.026-1.634-1.356-1.019-3.359.831-2.704.637.225 2.283-.365 3.658-1.311s4.525-2.609 7-3.695 5.118-2.722 5.872-3.636 1.858-1.663 2.451-1.663c.88 0 9.67-5.137 26.153-15.284 7.849-4.832 12.98-8.187 19.294-12.616 3.998-2.805 7.673-5.1 8.166-5.1s1.047-.347 1.231-.77c.405-.937 17.63-14.23 18.439-14.23.315 0 3.098-2.25 6.183-5s6.173-5 6.861-5 1.61-.611 2.05-1.359c1.07-1.817 12.469-9.638 14.05-9.64.688 0 1.251-.338 1.252-.751s2.589-2.087 5.75-3.722 6.198-3.541 6.748-4.237c.96-1.215 15.204-10.291 16.146-10.291.26 0 3.03-1.731 6.16-3.846 6.57-4.435 14.73-9.222 21.19-12.424 2.48-1.226 4.82-2.713 5.21-3.304.38-.59 2.52-1.675 4.75-2.41 2.22-.735 4.04-1.714 4.04-2.176s.87-.84 1.93-.84 2.53-.58 3.25-1.289c.73-.708 3.57-2.261 6.32-3.449l16.09-7.054c6.1-2.691 13.27-5.191 15.93-5.555s5.55-1.293 6.41-2.063c2.08-1.849 13.34-6.369 17.94-7.198 2-.36 4.53-1.125 5.63-1.699s3.69-1.414 5.75-1.868c2.07-.454 5.44-1.263 7.5-1.799 6.72-1.745 26.58-6.06 34.25-7.443 4.13-.743 9.98-2.499 13-3.901 5.33-2.471 13.74-5.506 17.19-6.202.93-.187 2.73-.912 4-1.612s2.76-1.377 3.31-1.506c1.72-.403 24.85-9.329 28-10.808l6.5-3.044c1.93-.902 5.75-2.919 8.5-4.484s5.79-2.886 6.75-2.935c.97-.05 1.75-.541 1.75-1.091s.9-1 2-1 2-.395 2-.879 1.35-1.438 3-2.121 3-1.54 3-1.903 2.03-1.258 4.5-1.989c2.48-.731 4.51-1.617 4.51-1.968.01-.352 1.13-1.159 2.5-1.793 2.81-1.307 2.8-.493-.2 8.653-.81 2.475-1.67 6.975-1.92 10s-.81 7.659-1.26 10.297c-.82 4.799.47 12.703 2.08 12.703.44 0 .79 1.298.79 2.885 0 3.399 2.35 9.44 3.3 8.49.36-.362 1.47.355 2.48 1.593 3.27 4.046 21.79 7.168 23.74 4.004.26-.41 2.15-1.04 4.22-1.4 3.91-.679 10.31-3.445 11.38-4.918.34-.466 1.09.434 1.67 2 1.39 3.787 5.54 8.346 7.59 8.346.91 0 2.52.544 3.59 1.208 1.97 1.233 2.44 1.169 16.28-2.21 2.62-.638 4.75-1.574 4.75-2.079s.9-.919 2-.919c1.09 0 2.52-.855 3.17-1.9.66-1.045 1.71-1.703 2.34-1.461s2.4-.815 3.93-2.349c1.54-1.535 3.21-2.79 3.71-2.79.51 0 1.3-.601 1.75-1.335.46-.735 1.16-1.185 1.56-1 .78.353 4.58-2.566 10.15-7.782 1.83-1.714 3.56-2.887 3.84-2.607s.79-.229 1.14-1.133c.34-.904 1.06-1.643 1.59-1.643 1.3 0 3.82-2.595 3.82-3.929 0-.589.39-1.071.86-1.071.46 0 2.26-1.354 4-3.009 1.73-1.654 3.14-2.784 3.14-2.509 0 .627 3.49-2.127 7.32-5.777 1.61-1.537 3.16-2.561 3.45-2.276.96.962 6.09-2.759 6.62-4.809.7-2.647-.23-3.521-1.72-1.618-.64.824-2.52 2.154-4.17 2.956-3.03 1.474-20.71 15.768-21.33 17.243-.18.439-.82.799-1.42.799-.59 0-2.24 1.117-3.66 2.483-3.82 3.674-16.01 13.403-18.36 14.664-1.13.602-3.04 2.165-4.25 3.474s-3.17 2.379-4.34 2.379-2.14.6-2.14 1.333-.56 1.334-1.25 1.334-4.33 1.228-8.08 2.73c-11.28 4.512-19.31 3.092-22.24-3.931-1.84-4.39-1.89-4.174 1.39-5.872 1.55-.801 5.3-3.85 8.32-6.775 3.03-2.926 6.65-5.924 8.05-6.663 1.39-.739 3.26-2.876 4.16-4.75.89-1.873 2.08-3.406 2.64-3.406s1.01-1.152 1.01-2.559c0-1.684.4-2.314 1.16-1.844.81.5.97 0 .54-1.654-.4-1.535-.02-3.058 1.09-4.326 1.48-1.691 1.5-1.878.12-1.378-1.21.441-1.49.056-1.17-1.62.7-3.676-9.52-6.964-11.7-3.762-.29.437-1.95 1.618-3.69 2.625-1.79 1.043-3.51 3.087-4 4.75-.46 1.605-1.2 2.869-1.63 2.808-3.19-.451-11.96 18.963-12.16 26.901-.12 4.96-17.59 10.724-27.67 9.13-15.28-2.415-20.06-22.987-11.76-50.571.66-2.2 1.29-5.125 1.41-6.5l.34-3.75c.07-.687.78-1.25 1.57-1.25.8 0 1.81-.563 2.25-1.252s2.01-1.873 3.49-2.633c1.47-.759 4.18-2.783 6.02-4.498s4.99-4.354 7-5.866 3.95-3.656 4.3-4.765 1.06-1.753 1.58-1.433 3.47-1.811 6.56-4.736c9.47-8.952 20.35-20.103 20.35-20.846 0-.388 2.48-3.802 5.5-7.588s5.5-7.281 5.5-7.768 1.09-1.896 2.43-3.131c6.71-6.222 9.69-30.544 4.23-34.574-3.15-2.326-9.62-3.179-10.31-1.361zm365.11 1.517c-.31.514-1.4.934-2.41.934s-2.9 1.117-4.19 2.483c-1.3 1.365-2.69 2.49-3.1 2.5-.69.016-2.01 1.316-9.01 8.868-2.42 2.619-4.61 6.157-12.73 20.62-1.11 1.974-2.02 4.926-2.02 6.559s-.45 2.97-1 2.97-1 1.237-1.01 2.75c-.01 2.143-.23 2.419-.99 1.25-.84-1.305-.97-1.289-.98.128-.01.895-.69 2.187-1.52 2.872-.82.685-1.5 1.865-1.5 2.622s-.9 2.278-2 3.378-2 2.9-2 4-.42 2-.93 2-1.22.905-1.57 2.011c-.54 1.695-5.3 5.102-6.99 4.998-.28-.018-2.1.63-4.04 1.439-1.93.809-5.05 1.758-6.92 2.11-1.88.351-3.62 1.197-3.88 1.88-.27.683-1.53 1.15-2.82 1.039s-3.19.231-4.22.762a14.53 14.53 0 0 1-4 1.238c-3.71.478-8.08 1.766-9.33 2.747-.67.521-1.68.656-2.26.299s-1.33.073-1.67.957c-.83 2.181.06 2.852 2.29 1.712 2.85-1.464 8.63-3.148 12.24-3.568 1.79-.209 3.73-.85 4.3-1.424.58-.574 1.64-.818 2.36-.542s2.8-.146 4.62-.938c12.76-5.536 16.73-6.588 17.36-4.603.78 2.447 2.8 1.285 2.15-1.23-.38-1.435.04-1.887 1.74-1.887 3 0 3.82-.996 2.32-2.819-1.1-1.327-.98-1.338 1.07-.092 2.08 1.27 2.48 1.204 4.02-.666.94-1.142 2.24-1.897 2.9-1.678s2.18-.518 3.38-1.639 2.52-1.832 2.92-1.582c.41.249 1.29-.216 1.97-1.035s1.94-1.489 2.8-1.489c.87 0 4.19-2.055 7.38-4.566 3.2-2.512 5.81-4.227 5.81-3.812s.92-.23 2.04-1.433 2.6-2.189 3.28-2.189c1.71 0 6.68-5.832 6.7-7.853.01-1.43.14-1.45 1-.147 1.14 1.743 2.94-.13 2.97-3.095.01-.877.91-2.41 2.01-3.405s2-2.378 2-3.072.39-1.411.86-1.595c3.49-1.369 5.97-18.561 3.36-23.423-2.3-4.306-11.12-7.998-12.76-5.344zm8.36 3.973c1.2 1.121 2.23 3.034 2.28 4.25.06 1.216.29 4.236.51 6.711.26 2.937-.05 4.847-.9 5.5-.71.55-1.93 2.575-2.69 4.5-.77 1.925-2.43 4.892-3.7 6.594-1.28 1.702-2.32 3.38-2.32 3.729 0 1.266-13.25 13.608-14.76 13.743-.4.037-2.76 1.606-5.24 3.488-2.47 1.881-6.52 4.401-9 5.598-2.47 1.198-5.3 2.866-6.29 3.706-3.54 3.017-8.71 4.184-8.71 1.965 0-1.068.39-1.704.86-1.413 1.11.689 3.55-4.382 3.24-6.734-.15-1.131.55-2.031 1.84-2.369 1.16-.303 2.37-1.688 2.73-3.11.35-1.41 1.25-3.719 1.98-5.13.74-1.412 1.34-3.355 1.35-4.317 0-.962.44-1.75.98-1.75s2.59-3.43 4.55-7.622c4.11-8.784 7.87-14.651 8.79-13.73.35.351.95-.214 1.32-1.255 1.58-4.362 15.2-14.18 19.93-14.354.58-.021 2.04.879 3.25 2zm-621.82.509c0 3.395 7.94 13.648 20.88 26.973 13.47 13.859 18.88 19.943 25.71 28.888 1.93 2.525 3.94 4.591 4.46 4.591.53 0 .95.675.95 1.5 0 .845.9 1.5 2.05 1.5 2.84 0 8.15 2.878 7.43 4.031-.71 1.162 8.17.117 11.02-1.298 5.25-2.595 6.99-7.089 4.53-11.681-2.57-4.812-15.06-2.501-22.66 4.194-2.11 1.863-2.14 1.848-4.41-1.934-3.13-5.24-13.02-17.398-20.99-25.812-16.24-17.167-23.34-25.728-25.05-30.217-.97-2.567-3.92-3.119-3.92-.735zm-23.19 12.202c-5.24 7.782-14.76 24.367-20.24 35.25-5.84 11.598-17.77 33.005-18.72 33.592-.46.289-.85 1.33-.85 2.312 0 2.622-3.2 5.212-5.02 4.061-6.68-4.224-23.49 4.262-17.34 8.755 5.18 3.79 21.36-2.214 21.36-7.926 0-1.021.68-2.116 1.5-2.432.83-.317 1.5-1.168 1.5-1.892s1.12-2.638 2.48-4.254 2.94-4.013 3.51-5.327 2.15-4.189 3.51-6.389 5.74-10.075 9.73-17.5l8.27-15.111c.55-.886 2.21-3.852 3.69-6.59s5.19-8.72 8.25-13.292c5.86-8.747 6.39-10.007 4.24-10.007-.73 0-3.37 3.038-5.87 6.75zm-422.778 1.692c-1.183 2.443-2.597 7.506-3.143 11.25s-1.478 9.383-2.07 12.53c-1.258 6.689-1.225 7.278.418 7.278 1.249 0 1.47-.899 4.181-17.028.835-4.965 2.208-10.984 3.052-13.376 2.467-6.993.842-7.43-2.438-.654zm-19.589 5.031c-.96 5.115.03 24.396 1.318 25.684 2.426 2.426 4.46.164 2.778-3.089-1.12-2.166-1.535-6.091-1.535-14.518 0-11.336-1.225-15.198-2.561-8.077zM418.178 418.13c3.369 2.29 7.336 7.484 7.336 9.607 0 3.498-12.461-3.32-14.44-7.901-1.703-3.942 2.372-4.921 7.104-1.706zm237.335 5.39c-4.377 4.541-9.803 13.722-8.739 14.787.269.269 2.904-2.792 5.856-6.803s6.158-8.163 7.125-9.23c1.809-1.993 2.282-3.561 1.075-3.561-.376 0-2.769 2.163-5.317 4.807zm-40.387-2.975c-2.736 4.384 2.28 24.698 7.591 30.747 5.083 5.789 6.828 1.8 1.94-4.435-3.294-4.203-6.044-11.845-7.607-21.144-.704-4.186-1.389-6.026-1.924-5.168zm-202.014 5.904c-.593.592-3.598-.954-3.598-1.851 0-.496.88-.353 1.955.319s1.814 1.36 1.643 1.532zm889.398-1.086c0 2.298-5.02 12.35-6.17 12.35-.52 0-.72.37-.44.822s-.12 2.04-.89 3.53c-.92 1.769-1.12 3.479-.57 4.928.79 2.105.91 2.039 2.35-1.28 2.5-5.77 3.7-8.286 6.13-12.763 1.38-2.545 2.12-5.265 1.84-6.75-.53-2.773-2.25-3.412-2.25-.837zm-889.246 4.596c4.362 2.31 5.633 4.754 2.473 4.754-2.267 0-5.903-2.534-7.25-5.051s-.426-2.459 4.777.297zm548.933 12.124c-7.366 7.719-16.981 11.792-13.798 5.845 1.383-2.585 6.888-7.215 8.577-7.215.72 0 2.566-.652 4.102-1.449 4.197-2.177 4.694-.926 1.119 2.819zm884.933-1.905c-.89 1.355-1.62 2.927-1.62 3.491s-.9 1.589-2 2.276c-1.21.759-2 2.332-2 4.009 0 1.517-.4 2.759-.9 2.759s-.67-.9-.39-2c.82-3.105-.94-2.298-3.88 1.788-1.47 2.042-4.5 5.989-6.74 8.772-4.23 5.27-6.66 12.131-3.99 11.242.77-.256 1.85-1.779 2.39-3.384s1.24-3.143 1.55-3.418c1.93-1.718 4.79-6.857 4.18-7.523-.39-.439-.2-.504.43-.146s1.93-.558 2.91-2.052c1.66-2.54 1.82-2.585 2.54-.742 1.18 3.021 1.14 5.387-.06 3.492-.51-.809-1.1-1.259-1.31-1-1.57 1.919-7.73 14.094-7.73 15.276 0 .815-.61 1.718-1.37 2.007-.75.29-2.37 2.476-3.6 4.857s-3.29 6.131-4.59 8.331c-5.51 9.337-6.44 11.602-6.44 15.738 0 5.385 4.18 11.955 7.93 12.483 5.98.842 10.76.848 11.82.017.68-.536 2.13-.742 3.21-.459 1.09.283 2.47-.083 3.07-.812.61-.73 1.96-1.161 3.02-.959 2.31.446 3.13-.603 1.95-2.51-.68-1.102-1.37-1.165-3.18-.295-17.59 8.441-31.18-3.604-20.4-18.074 1.28-1.721 2.12-3.691 1.87-4.379s.02-1.25.6-1.25.78-.693.46-1.541c-.38-.981-.09-1.435.78-1.25.77.163 1.38-.516 1.38-1.545 0-1.01.88-2.472 1.94-3.25 1.39-1.015 1.53-1.423.5-1.446-.86-.019-.34-.853 1.27-2.058 1.65-1.232 2.97-3.4 3.37-5.528.46-2.447 1.08-3.339 2.07-2.962.94.362 1.59-.399 1.97-2.318.5-2.48 1.14-2.935 4.84-3.442 2.34-.321 7.14-1.477 10.65-2.569s8.07-2.254 10.13-2.583c2.07-.329 3.75-1.087 3.75-1.684 0-.709-1.3-.85-3.75-.407-2.06.374-4.87.827-6.25 1.008-6.3.829-10.6 1.849-11.73 2.783-.89.725-1.43.536-1.89-.659-.74-1.936 1.09-6.549 2.6-6.549.56 0 1.02-1.25 1.02-2.777 0-1.689 1.18-4.064 3-6.062 3.63-3.967 3.77-5.161.62-5.161-1.43 0-3.03.985-4 2.465zm-1197.1 11.519c-7.096 7.123-9.639 10.293-8.872 11.06 1.454 1.454 19.356-17.211 19.356-20.182 0-1.39-.09-1.311-10.484 9.122zm323.486-7.987c-1.117 2.087-8.809 6.53-9.722 5.616-1.766-1.765 5.141-7.601 9.005-7.609 1.475-.003 1.599.343.717 1.993zm191.794.203c4.93 4.926-5.57 11.705-11.35 7.332-1.07-.808-2.96-1.483-4.2-1.5-5.41-.077 1.57-4.532 9.52-6.078l4.28-.839c.31-.063 1.09.425 1.75 1.085zm-578.146 4.798c-1.011 5.057 1.927 16.819 3.732 14.935.659-.689-1.698-17.933-2.452-17.933-.374 0-.95 1.349-1.28 2.998zm-7.65 4.878c0 7.968 3.868 15.124 8.174 15.124 2.511 0 2.302-.753-1.089-3.92-2.166-2.024-3.227-4.315-4.134-8.926-1.526-7.752-2.951-8.853-2.951-2.278zm14.144 1.244c-1.726 4.541-1.815 11.38-.148 11.38 1.077 0 1.704-1.668 2.24-5.96.803-6.428-.462-9.706-2.092-5.42zm1359.652.08c.94.933 1.47.933 2.4 0 .94-.933.67-1.2-1.2-1.2-1.86 0-2.13.267-1.2 1.2zm-1346.796 3.265c0 7.497 4.457 16.535 8.155 16.535 2.462 0 2.323-.742-1.086-5.771-1.592-2.349-3.469-6.511-4.171-9.25-1.479-5.772-2.898-6.514-2.898-1.514zm1261.996-2.465c0 .55.68 1 1.5 1 .83 0 1.5-.45 1.5-1s-.67-1-1.5-1c-.82 0-1.5.45-1.5 1zm89.99-1c-.79 1.627-.6 5.011.24 4.173.53-.528.75-1.796.48-2.817-.26-1.021-.58-1.631-.72-1.356zm-305.99 4.941c0 1.068-.43 2.207-.95 2.532-1.1.677-.27 3.527 1.03 3.527 1.47 0 2.85-3.573 2.26-5.838-.71-2.689-2.34-2.843-2.34-.221zm-1054.172 4.919c-2.071 4.496-2.685 9.344-1.246 9.829 1.345.453 3.215-3.542 4.023-8.596.816-5.104-.688-5.771-2.777-1.233zm1353.532-2.36c.83.825 1.98 1.5 2.57 1.5s1.07-.675 1.07-1.5c0-.944-.95-1.5-2.57-1.5-2.28 0-2.4.167-1.07 1.5zM645.015 470.24c-4.887 3.56-9.201 6.473-9.586 6.473s-.96.675-1.277 1.5c-1.696 4.421 14.092-5.063 18.783-11.283 3.116-4.131 1.19-3.326-7.92 3.31zm1003.375-4.027l-.25 2.75c-.07.688-.76 1.25-1.54 1.25s-1.86 1.35-2.39 3c-.54 1.65-1.82 4.194-2.84 5.654s-1.86 3.093-1.86 3.628-.62 1.488-1.37 2.118c-.76.63-1.64 2.431-1.96 4.002-.31 1.571-1.28 3.574-2.16 4.451-3.87 3.864-3.93 24.422-.09 27.981 3.5 3.243 13.88 5.606 15.21 3.461.28-.455.95-.558 1.48-.228 1.32.814 14.89-1.672 14.89-2.727 0-.462.64-.84 1.41-.84s3.14-.851 5.25-1.89l8.82-4.25c6.16-2.924 7.52-4.153 7.52-6.789 0-2.61-1.18-2.634-3.5-.071-.99 1.1-2.26 2-2.82 2s-1.85.752-2.86 1.671c-7.32 6.618-16.54-2.686-9.82-9.901 1.1-1.181 2-2.911 2-3.844s1.13-2.433 2.5-3.334c1.38-.901 2.5-2.259 2.5-3.017s1.31-1.835 2.91-2.392 3.21-1.985 3.59-3.173c.87-2.732-.29-3.99-1.83-1.995-.64.832-2.43 2.32-3.97 3.307s-3.09 2.555-3.45 3.484-1.57 2.681-2.7 3.893c-3.67 3.949-4.56 5.209-5.56 7.84-1.71 4.508-.94 12.167 1.11 10.903.48-.3.6.186.26 1.081-.41 1.054-.14 1.559.76 1.434 6.35-.887 4.29 1.295-3.83 4.064-10.39 3.541-24.15 3.475-27.51-.132-3.52-3.794-2.55-19.002 1.68-26.216 1.4-2.392 2.54-5.274 2.54-6.404s.67-2.312 1.49-2.625 2.23-3.248 3.14-6.522c1.08-3.871 2.09-5.785 2.9-5.476 1.34.515 3.82-5.269 2.9-6.761-.86-1.403-2.41-1.029-2.55.615zm292.57 1.851c-4.88 2.294-14.45 11.901-14.45 14.507 0 .628-.41 1.142-.91 1.142-.51 0-1.83 1.462-2.94 3.25s-2.83 4.15-3.83 5.25c-1.97 2.164-3.86 4.769-7.98 11-5.06 7.637-11.43 10.061-14.59 5.548-3.24-4.624 2.86-19.768 11.19-27.8 7.68-7.401 6.45-7.854-5.72-2.116-4.26 2.006-8.12 3.036-11.98 3.192-5.37.217-5.71.382-5.9 2.862-.11 1.447-1.13 4.459-2.27 6.693-1.28 2.492-1.59 3.866-.82 3.555 1.43-.576 4.75-6.807 4.75-8.903 0-.934 1.83-1.615 5.58-2.084 3.07-.383 7.53-1.687 9.93-2.897l4.34-2.201-3.25 4.076c-10.06 12.623-13.09 25.238-7.01 29.221 5.56 3.644 13.13-.889 21-12.567 14.18-21.047 19.4-27.081 26.11-30.155 5.4-2.476 5.58-2.446 4.86.826a187.03 187.03 0 0 0-1.06 5.25c-.62 3.43-4.1 10.065-4.87 9.294-.34-.345-.63.348-.63 1.539 0 1.324-.62 2.167-1.6 2.167-.96 0-1.39.559-1.08 1.381.29.76-.47 2.897-1.69 4.75s-2.2 4.038-2.17 4.855c.05 1.737 3.54 2.722 3.54 1.001 0-.638 1.43-3.259 3.18-5.824l5-7.373c1-1.49 1.82-3.527 1.82-4.527 0-2.69 6.34-11.263 8.32-11.263.53 0 1.52-.756 2.19-1.68 2.16-2.946 3.91 1.722 2.01 5.356-.81 1.553-2.87 5.974-4.57 9.824-1.71 3.85-3.66 7.675-4.35 8.5-1.61 1.932-3.79 9.34-4.3 14.648-.61 6.224 4.25 8.448 11.95 5.468 1.51-.584 6.09-1.267 10.18-1.518s8.32-.926 9.39-1.5c1.56-.837 2.47-.561 4.58 1.393 4.2 3.888 16.6 2 16.6-2.526 0-2.396.28-2.398-4.76.035-7.5 3.625-13.35 1.079-8.04-3.496 1.95-1.672 2.35-2.561 1.52-3.386-.61-.615-.74-1.118-.28-1.118.47 0 1.39.743 2.05 1.652 1.12 1.523 1.36 1.503 3.16-.25 1.07-1.046 3.95-2.992 6.4-4.325s4.81-3.02 5.25-3.75 1.23-1.327 1.74-1.327c1.48 0 4.96-3.312 4.96-4.722 0-.703.44-1.278.97-1.278 1.21 0 .22-2.926-1.77-5.25-3.32-3.862-7.56-1.528-19.45 10.697-4.26 4.385-7.75 8.259-7.75 8.611s-1.8 1.346-4 2.21c-2.99 1.176-4.02 2.157-4.11 3.902-.09 1.809-.22 1.922-.59.507-.32-1.252-.99-1.605-2.13-1.127-.92.384-2.79.789-4.17.901-1.37.112-3.4.687-4.5 1.278-12.99 6.978-16.84-1.1-7.97-16.764 10.27-18.158 11.05-27.96 1.98-24.968-1.91.632-3.74 1.566-4.05 2.076-1.02 1.64-2.31.991-2.64-1.323-.45-3.162-4.19-3.306-10.37-.399zm-1362.446-.611c0 2.254 9.12 12.175 11.25 12.238 1.945.057.35-2.939-3.5-6.575-5.608-5.296-7.75-6.861-7.75-5.663zm1025.266 1.392c-.62.622-3.05 1.304-5.4 1.516s-4.52.715-4.82 1.118-1.22.748-2.05.765c-4.24.087-13.1 1.825-13.62 2.673-.99 1.593 1.33 3.281 2.83 2.066.71-.576 3.77-1.372 6.79-1.77 3.03-.398 6-1.127 6.61-1.619.62-.492 2.87-1.047 5-1.233 2.14-.187 4.57-.607 5.39-.935.83-.328 2.37-.735 3.42-.904 1.06-.17 2.11-.871 2.33-1.559.54-1.599-4.9-1.699-6.48-.118zm215.48 5.3c-2.86 3.602-3.45 6.012-1.75 7.068.55.34 1-.084 1-.941s.53-1.559 1.17-1.559.87-.301.5-.669.04-1.459.92-2.425c.87-.967 1.44-2.472 1.25-3.347-.25-1.17-1.06-.677-3.09 1.873zm222.5.318c-4.53 6.154-12.44 14.25-13.93 14.25-.76 0-1.64.688-1.96 1.529-.33.841-2.51 2.401-4.85 3.468-2.35 1.069-4.49 2.825-4.77 3.914-.31 1.191-1.82 2.314-3.8 2.826-3.26.846-7.9 5.637-6.65 6.88.35.357 2.24-.747 4.18-2.453s4.16-2.862 4.92-2.569c.87.334 1.9-.611 2.75-2.531.77-1.74 2.11-3.064 3.11-3.064.96 0 1.75-.473 1.75-1.052s1.35-1.523 3-2.098 3-1.452 3-1.948.65-.902 1.45-.902c.79 0 2.24-1.35 3.21-3 .98-1.65 2.26-3 2.85-3s2.77-1.846 4.85-4.103c2.07-2.257 3.89-3.944 4.03-3.75 12.61 17.395.03 45.691-15.93 35.825-1.96-1.21-3.82-1.944-4.13-1.631-1.02 1.02 5.46 6.659 7.65 6.659 4.09 0 10.91-2.219 12.62-4.103.94-1.043 2.24-1.897 2.87-1.897 1.42 0 4.23-5.706 5.42-11.003.84-3.737.54-5.852-2.83-19.997-2.58-10.835-4.45-12.16-8.81-6.25zm-1439.246-.118c0 .898-.965 3.193-2.144 5.102-2.504 4.05-.874 6.497 2.371 3.56 1.927-1.744 2.569-10.294.773-10.294-.55 0-1 .734-1 1.632zm966.496 1.325c-1.65.428-7.5 1.8-13 3.05s-11.96 2.877-14.37 3.615-4.76 1.106-5.22.819c-.47-.288-2.22.189-3.91 1.059-1.68.87-3.45 1.335-3.94 1.034s-2.13-.078-3.64.498c-2.7 1.025-4.58 1.4-13.19 2.625-2.35.335-4.51.999-4.81 1.476-.29.477-1.78.867-3.31.867-1.52 0-3.11.337-3.52.75s-1.05.785-1.42.828c-3.37.391-8.29 1.822-8.74 2.535-1.17 1.903.72 2.84 2.88 1.426 1.21-.791 3.99-1.703 6.19-2.027s4.68-.729 5.5-.901l5.25-1.073c2.07-.418 3.75-1.065 3.75-1.437 0-.601 3.82-1.24 8-1.338.83-.02 2.07-.479 2.75-1.022.69-.542 1.26-.593 1.27-.113s.49.197 1.07-.628c.76-1.065 1.21-1.156 1.55-.312.36.864 1.67.681 4.83-.675 2.39-1.025 4.57-1.642 4.84-1.372s2.23.025 4.34-.545c2.12-.569 4.9-1.195 6.19-1.39 1.28-.195 2.74-.996 3.23-1.78.74-1.161.91-1.172.92-.059.01.962.68 1.153 2.26.646 1.24-.397 3.18-.817 4.3-.935 1.13-.117 2.67-.595 3.43-1.062.75-.467 2.53-.973 3.95-1.126s3.7-.491 5.07-.751c1.38-.26 3.07-.51 3.75-.556.69-.045 1.25-.758 1.25-1.583 0-1.634-2.56-1.82-7.5-.543zm123.86 2.036c-1.18.477-2.45 1.348-2.81 1.937-.37.588-1.54 1.07-2.6 1.07-1.28 0-1.95.687-1.95 2 0 2.684 1.12 2.526 6.2-.879 4.75-3.179 10.32-3.309 11.23-.262 1.5 4.989 1.29 6.959-1.02 9.651-1.32 1.54-2.41 3.406-2.41 4.146s-.55 1.232-1.22 1.094c-.68-.138-1.38.738-1.56 1.945-.2 1.302-.86 1.993-1.63 1.699-.71-.272-2.05.667-2.98 2.088s-2.17 2.286-2.76 1.925c-.92-.573-.32 3.278.7 4.435.55.618 3.31-1.32 3.31-2.317 0-.536.47-1.134 1.06-1.329.67-.224.92 1.089.68 3.548-.56 5.845 9.54 14.081 11.25 9.17.22-.64.76-.654 1.5-.038 1.46 1.21 5.14-1.277 4.19-2.826-.37-.595-1.15-.791-1.72-.434-7.6 4.696-15.81-2.652-10.51-9.408.69-.886.64-1.657-.15-2.45-1.44-1.446-1.49-2.758-.1-2.758.58 0 .78.45.44 1s-.21 1 .28 1c.94 0 3.22-4.338 3.22-6.118 0-.564.72-1.741 1.6-2.617 1.04-1.046 1.4-2.552 1.03-4.39-.31-1.539-.13-3.066.41-3.395.53-.329.96.329.96 1.461 0 2.135 1.44 2.775 2.48 1.1.87-1.408-1.76-5.146-3.22-4.584-.79.301-1.26-.403-1.26-1.891 0-3.66-7.31-5.726-12.64-3.573zm55.56 1.723c-.83 2.197-1.21 2.436-1.99 1.25-.83-1.258-1.11-1.218-1.99.284-.57.962-1.78 1.75-2.69 1.75-1.15 0-1.33.315-.59 1.054 1.12 1.126 8.34-1.676 8.34-3.239 0-.448.68-.815 1.5-.815a1.5 1.5 0 0 0 1.5-1.5c0-2.546-2.99-1.655-4.08 1.216zm5.08-1.786c0 .589.4 1.07.89 1.07 1.96 0 1.84 6.079-.15 7.139-1.23.661-1.74 1.721-1.42 2.947.27 1.053.03 1.914-.54 1.914-1.37 0-4.78 3.961-4.78 5.547 0 .683-1.35 2.687-3 4.453s-3 3.974-3 4.906-.53 2.226-1.18 2.877c-1.58 1.58-.73 2.268 1.95 1.569 1.19-.312 2.47-1.532 2.84-2.71.36-1.178.96-2.367 1.33-2.642.83-.622 5.51-8.228 5.68-9.25.08-.413.19-1.2.26-1.75s1.02-1 2.12-1c1.33 0 2-.667 2-1.969 0-1.274.5-1.779 1.4-1.432.77.294 2.01-.324 2.75-1.374.75-1.05 1.9-2.093 2.57-2.317.72-.24.89-.937.42-1.692-1.07-1.721-3.65-.614-4.87 2.092-.8 1.748-.97 1.077-.88-3.308.1-4.984-.1-5.53-2.14-5.82-1.23-.175-2.25.162-2.25.75zm-730 1.063c.96.13-3.16 2.194-6.02 3.012-1.93.554-3.05.443-3.42-.341-.41-.86-.71-.838-1.14.086-.32.688-1.48 1.25-2.58 1.25-3.05 0-1.65-2.336 2.24-3.718 2.85-1.014 5.16-1.075 10.92-.289zm744.25.543c-1.78.752-3.25 2.064-3.25 2.916 0 2.109.98 1.902 4.47-.944 3.63-2.968 3.12-3.796-1.22-1.972zm4.75.177c0 .708.42 1.287.94 1.287 1.13 0 .41 4.522-1.19 7.405-.64 1.152-1.05 2.658-.91 3.345s-.33 1.251-1.04 1.251c-.82.001-1.39 1.576-1.55 4.25-.15 2.337-.78 5.257-1.42 6.489-.92 1.797-.84 2.589.41 4 .86.968 1.73 2.66 1.95 3.76.23 1.189 1.05 1.888 2.03 1.723.9-.152 1.92.186 2.27.75 1.8 2.924 11.51.156 11.51-3.282 0-1.425-.35-1.439-3.46-.14-10.66 4.453-14.36-6.157-7.15-20.505 2.97-5.926 2.71-12.005-.5-11.762-1.04.078-1.89.721-1.89 1.429zm92.43.254c-2.77 1.119-8.43 6.843-8.43 8.521 0 .734-1.35 2.47-3 3.859s-3 2.796-3 3.129-.87 1.824-1.94 3.314c-3.37 4.682-2.91 15.136.6 13.79.79-.307 1.19-.145.88.359-.58.945.61 1.438 6.21 2.566 4.13.83 4.29-.879.25-2.665-2.82-1.252-4.17-3.84-2-3.84.55 0 1-.702 1-1.559s.42-1.303.92-.991c.51.313 1.63-.143 2.5-1.012s1.58-1.368 1.58-1.108c0 2.055 6.14-5.865 6.58-8.487.49-2.948.41-3.107-.66-1.343-1.72 2.819-15.78 16.024-16.34 15.344-1.1-1.333-1.35-6.694-.29-6.288.71.273 2.2-1.679 3.6-4.72 1.3-2.852 3.6-6.345 5.11-7.761s3.52-3.809 4.48-5.316 2.16-2.482 2.68-2.164c.51.317 1.62.005 2.46-.695 1.99-1.645 3.28.175 2.62 3.665-.27 1.404 0 2.435.65 2.435 1.9 0 1.23 1.737-.89 2.29-2.09.548-2.83 3.71-.86 3.71 4.38 0 5.32-10.707 1.23-13.927-2.91-2.29-2.98-2.303-5.94-1.106zm-52.53 3.235c-.65 1.211-2.92 3.759-5.04 5.664-3.72 3.34-4.99 6.134-2.8 6.134.58 0 .78-.45.44-1s.09-1 .95-1c.85 0 1.55-.42 1.55-.933s.79-1.204 1.75-1.536c1.74-.599 6.25-6.812 6.25-8.6 0-1.731-1.92-.945-3.1 1.271zm-1173.657 4.23c-5.227 2.651-7.699 5.015-6.787 6.49.471.762 1.583.477 3.523-.904 1.558-1.11 3.145-2.018 3.525-2.018 1.232 0 6.5-4.108 6.5-5.068 0-1.368-1.965-.932-6.761 1.5zm1094.757 3.649c-3.02 3.341-6.51 7.02-7.75 8.177-1.23 1.156-2.25 3.259-2.26 4.672-.01 1.907-.25 2.204-.91 1.152-.71-1.115-1.31-.741-2.83 1.747-1.05 1.74-2.29 2.828-2.74 2.417s-.54.06-.18 1.044c.48 1.327.19 1.715-1.09 1.5-1.15-.192-1.84.467-2.06 1.96-.17 1.237.11 2.25.63 2.25 1.51 0 8.62-6.903 7.88-7.647-.37-.371.34-1.175 1.57-1.787 1.31-.651 2.37-2.22 2.56-3.784.2-1.758.77-2.495 1.65-2.155.77.294 1.63-.338 1.98-1.462.35-1.089 1.29-2.233 2.09-2.541.81-.309 1.46-1.25 1.46-2.093s.64-1.531 1.42-1.531c1.48 0 6.58-5.487 6.58-7.077 0-2.322-2.94-.421-8 5.158zm275.47-3.974c-.84 2.649-3.57 5.893-4.97 5.893-.58 0-1.7.9-2.5 2-.79 1.1-2.17 2-3.06 2-.9 0-2.67.9-3.94 2-2.08 1.809-5 2.704-5 1.537 0-.255 3.88-3.855 8.63-8 8.82-7.712 12.08-9.348 10.84-5.43zm-584.83 6.399c-1.58.822-3.44 1.494-4.14 1.494-1.25 0-2.94 2.894-2.15 3.681.52.523 5.98-1.902 6.77-3.008.34-.478 1.81-.937 3.25-1.021 1.45-.083 2.63-.427 2.63-.763.01-1.493 5.27.588 6.59 2.602 2.29 3.488 1.8 15.509-.62 15.509-6.58 0-28.97 16.207-28.97 20.972 0 1.358.88 2.181 2.75 2.592 1.52.332 3.38.8 4.14 1.04 3.28 1.036 8.16-1.029 13.01-5.506 2.81-2.595 5.1-4.513 5.1-4.262 0 2.632 6.58-7.615 7.46-11.619.39-1.781 1.34-3.217 2.12-3.217.79 0 1.42-.408 1.42-.906s.79-.7 1.76-.448c.96.253 2.72-.437 3.89-1.533 1.18-1.096 2.38-1.75 2.68-1.453.48.477 5.44-.75 9.67-2.394.83-.32 2.07-.491 2.75-.38.69.111 1.25-.219 1.25-.733s1.69-1.207 3.75-1.54c8.94-1.444 10.25-1.931 10.25-3.789 0-.595-.98-.813-2.25-.498l-8.25 1.979c-3.3.781-7.12 1.891-8.5 2.467-1.37.576-5.09 1.805-8.25 2.731s-6.09 2.205-6.5 2.841c-1.02 1.582-5.25 1.618-5.25.044 0-.698.45-1.548 1-1.888 1.49-.919 1.21-7.194-.46-10.423-2.19-4.251-11.09-5.603-16.9-2.571zm371.93 6.057c-4.46 4.122-5.65 5.757-4.78 6.622s1.31.738 1.79-.518c.35-.917 1.24-1.667 1.96-1.667.73 0 1.6-.855 1.93-1.901s1.72-2.178 3.07-2.519c1.79-.449 2.46-1.296 2.46-3.099 0-3.098.56-3.363-6.43 3.082zm-310.57-3.594c0 .532-.6.737-1.34.454-1.71-.657-4.19 2.128-2.71 3.044 1.31.808 6.27-1.534 6.81-3.217.23-.687-.3-1.25-1.17-1.25s-1.59.436-1.59.969zm-138.2 8.584c.63 6.425-7.15 17.612-17.7 25.447-1.85 1.375-4.27 3.288-5.38 4.25s-2.24 1.75-2.51 1.75c-.97 0 .69-9.669 2.16-12.544a122.47 122.47 0 0 0 3.01-6.471c.82-1.933 2.65-4.599 4.06-5.924s2.56-3.442 2.56-4.704c0-1.409.49-2.12 1.25-1.843.69.248 2.38-.444 3.75-1.537 3.91-3.102 8.42-2.292 8.8 1.576zm580.2-.994c0 .857.45 1.281 1 .941s1-1.041 1-1.559-.45-.941-1-.941-1 .702-1 1.559zm-57 2.028c-1.37 1.357-4.41 3.395-6.75 4.529-2.33 1.134-4.25 2.446-4.25 2.914 0 1.781 2.2 2.101 3.9.568.97-.879 2.2-1.598 2.74-1.598 1.4 0 8.36-6.561 8.36-7.885 0-1.702-1.24-1.243-4 1.472zm64.02-1.111c-.78.95-.86 1.524-.2 1.524 1.21 0 2.62-1.897 1.93-2.591-.25-.251-1.03.229-1.73 1.067zm-146.78 2.686c-1.5 1.503-1.63 3.838-.2 3.838 1.2 0 2.31-2.462 1.8-4.005-.24-.715-.77-.66-1.6.167zm213.67.453c-1.16 1.398-1.09 1.566.54 1.25 1.04-.201 2.08-.927 2.3-1.615.6-1.784-1.26-1.546-2.84.365zM176.514 514.13a1.59 1.59 0 0 0 1.583 1.583c1.766 0 1.459-2.153-.395-2.771-.654-.218-1.188.317-1.188 1.188zm1259.156 3.024c-4.88 9.113-12.82 15.692-19.38 16.062-4.7.265-5.51-.794-2.83-3.679 1.13-1.21 2.05-2.708 2.05-3.327s1.47-1.882 3.25-2.806c3.75-1.935 7.03-3.945 7.75-4.746.65-.714 9.27-4.83 10.26-4.895.41-.028-.08 1.499-1.1 3.391zM351.116 534.846c-1.644 3.682-2.373 6.496-1.827 7.042 1.191 1.191 2.464-.546 4.553-6.208 3.344-9.067 1.235-9.713-2.726-.834zm-16.948 12.395c-2.08 9.467-2.136 15.827-.154 17.472.825.685 1.53 1.077 1.566.872s.182-3.972.325-8.372.624-10.138 1.07-12.75c1.339-7.84-.977-5.547-2.807 2.778zm18.096 1.072c-3.986 5.872-4.51 7.417-2.5 7.372 1.292-.03 7.75-9.923 7.75-11.872 0-2.247-1.602-.874-5.25 4.5zm-26.978 1.961c-1.591 1.591 2.502 23.592 4.734 25.444 2.68 2.224 3.329.067 1.46-4.852-1.013-2.666-2.419-8.517-3.125-13-1.208-7.677-1.719-8.942-3.069-7.592zm23.805 20.689c-1.02 1.788-2.757 3.976-3.86 4.863-2.155 1.734-1.58 4.155.773 3.252 1.513-.58 6.51-8.482 6.51-10.293 0-2.055-1.582-1.049-3.423 2.178zm-31.56 6c.025 6.053 3.367 21.16 5.351 24.189 3.235 4.937 4.999 2.105 2.137-3.43-1.708-3.302-5.505-18.855-5.505-22.548 0-1.353-.45-2.461-1-2.461s-.992 1.913-.983 4.25zm-106.017-2.25c0 1.153-2.401 1.153-6 0-2.124-.68-1.86-.816 1.75-.9 2.337-.055 4.25.35 4.25.9zm-9.782 5.111c3.544 1.808 5.681 4.324 4.594 5.41-2.477 2.477-25.812-4.174-25.812-7.358 0-2.153 16.07-.678 21.218 1.948zm142.85 10.139c-4.49 6.303-7.303 9.356-9.818 10.657-2.914 1.507-2.882 3.093.063 3.093 2.619 0 5.89-3.241 10.516-10.421 4.954-7.689 4.321-10.461-.761-3.329zm536.447 5.5c.694 1.668 2.719 9.615 3.948 15.5.317 1.513.964 2.75 1.439 2.75 2.737 0 1.088-12.314-2.351-17.563-1.847-2.819-4.14-3.338-3.036-.687zm-18.924 4.103c-.29.469 1.099 1.932 3.088 3.25 1.995 1.323 5.304 5.216 7.383 8.688 3.884 6.483 5.962 6.841 3.927.675-2.713-8.22-12.055-16.404-14.398-12.613zm29.375 2.338c-.674 6.201-.353 20.771.452 20.503 2.658-.886 3.107-18.634.512-20.237-.511-.316-.945-.436-.964-.266zm-8.543 19.053c2.551 14.352 17.908 38.756 24.389 38.756 2.304 0 1.139-3.52-1.699-5.135-4.549-2.587-10.493-11.409-16.081-23.865-5.753-12.822-7.652-15.626-6.609-9.756zm-23.423.637c0 3.096 15.124 10.395 17.212 8.307 1.441-1.441.204-4.285-1.569-3.605-.787.303-4.018-.83-7.178-2.517-5.819-3.105-8.465-3.788-8.465-2.185zm40.976 5.369c-.013 2.888-.407 6.901-.876 8.92-1.013 4.357-.31 9.066 1.275 8.539.619-.206 1.174-1.309 1.234-2.451s.408-4.332.774-7.09c.733-5.526-.144-13.168-1.511-13.168-.48 0-.883 2.362-.896 5.25zm-34.976 9.672c0 1.652 9.402 9.007 12.338 9.652 4.759 1.045 5.419-1.143 1.031-3.415-2.128-1.102-5.419-3.164-7.313-4.581-3.505-2.623-6.056-3.321-6.056-1.656zm15.5 24.773c-2.708.676-3.556 1.6-2.708 2.951 1.051 1.676 8.708.214 8.708-1.663 0-1.561-2.636-2.126-6-1.288zm-34.5 42.131c0 2.718-12.649 9.192-14.447 7.394-1.167-1.167-.439-2.231 2.697-3.942 6.535-3.566 11.75-5.098 11.75-3.452z" fill="#c47768"/></svg>